<svg width="430" height="536" viewBox="0 0 430 536" fill="none" xmlns="http://www.w3.org/2000/svg">
<path d="M159.312 320.077H172.542V353.926H159.312V320.077Z" fill="#FFBE55"/>
<path d="M189.126 290.363H202.358V353.926H189.126V290.363Z" fill="#2A94F4"/>
<path d="M218.942 296.936H232.173V353.926H218.942V296.936Z" fill="#FFBE55"/>
<path d="M248.757 264.759H261.988V353.926H248.757V264.759Z" fill="#2A94F4"/>
<path d="M384.002 377.682H35.7704C29.3148 377.682 24.0815 372.349 24.0815 365.77C24.0815 359.192 29.3148 353.859 35.7704 353.859H384.002C390.458 353.859 395.691 359.192 395.691 365.77C395.691 372.349 390.458 377.682 384.002 377.682Z" fill="#D3D3D3"/>
<path d="M188.258 209.234C188.191 208.081 186.233 205.732 186.531 205.437C186.746 205.226 187.508 205.952 187.92 206.376C187.943 206.401 187.973 206.418 188.006 206.425C188.038 206.433 188.073 206.43 188.104 206.419C188.135 206.407 188.163 206.386 188.183 206.359C188.203 206.332 188.215 206.3 188.218 206.266C188.308 205.133 188.586 201.961 188.897 201.932C189.211 201.901 189.368 203.907 189.412 204.581C189.413 204.591 189.417 204.6 189.423 204.608C189.43 204.615 189.439 204.62 189.449 204.621C189.458 204.623 189.468 204.62 189.477 204.615C189.485 204.61 189.491 204.601 189.494 204.592C189.736 203.879 190.552 201.579 190.903 201.874C191.236 202.155 190.719 204.358 190.505 205.206C190.502 205.216 190.503 205.227 190.508 205.236C190.513 205.245 190.52 205.252 190.53 205.256C190.549 205.264 190.572 205.256 190.583 205.237C191.004 204.478 192.115 202.553 192.415 202.799C192.721 203.049 191.86 205.136 191.541 205.877C191.537 205.886 191.536 205.897 191.539 205.906C191.542 205.916 191.549 205.925 191.557 205.93C191.566 205.936 191.576 205.938 191.586 205.937C191.596 205.935 191.605 205.93 191.612 205.922C192.093 205.368 193.353 203.957 193.346 204.372C193.337 204.885 191.124 209.149 190.399 209.862C189.674 210.578 188.258 209.234 188.258 209.234Z" fill="#FA968C"/>
<path d="M168.39 223.507C169.89 226.893 172.049 230.74 174.659 233.38C179.737 238.502 186.255 237.164 188.53 225.186C188.925 223.381 189.202 221.584 189.434 219.79C189.907 216.207 190.09 212.635 190.252 209.073C190.262 208.828 190.181 208.588 190.025 208.401C189.869 208.213 189.65 208.093 189.411 208.062C189.172 208.032 188.931 208.095 188.735 208.238C188.539 208.38 188.403 208.593 188.354 208.834L188.35 208.853C187.662 212.311 186.97 215.762 186.082 219.119C185.626 220.791 185.153 222.45 184.602 224.048C184.124 225.563 182.205 230.267 180.712 230.728C180.663 230.719 180.614 230.785 180.585 230.756C180.558 230.731 180.544 230.728 180.527 230.744C180.499 230.706 180.48 230.689 180.456 230.694C180.374 230.627 180.278 230.615 180.101 230.469C179.776 230.252 179.33 229.823 178.908 229.288C178.041 228.242 177.235 226.859 176.525 225.424C175.294 222.989 174.58 221.239 174.58 221.239C173.065 217.004 166.778 219.032 168.296 223.272C168.324 223.349 168.357 223.433 168.39 223.507Z" fill="#FA968C"/>
<path d="M178.465 228.065C178.46 228.056 178.453 228.048 178.447 228.04C177.678 226.889 176.966 225.7 176.314 224.476C175.664 223.281 175.002 221.952 174.538 220.822L174.516 220.765C174.342 220.338 174.084 219.952 173.76 219.63C173.435 219.307 173.05 219.055 172.627 218.889C172.203 218.723 171.752 218.646 171.299 218.663C170.846 218.68 170.401 218.79 169.991 218.987C169.581 219.185 169.214 219.465 168.913 219.81C168.613 220.156 168.384 220.56 168.241 220.999C168.098 221.437 168.044 221.901 168.082 222.361C168.12 222.822 168.249 223.269 168.462 223.677C169.271 225.242 170.053 226.522 170.947 227.869C171.556 228.757 172.194 229.624 172.859 230.47C173.352 229.933 177.285 228.495 178.465 228.065Z" fill="#FFBE55"/>
<path d="M175.183 251.775C172.269 255.183 155.444 256.605 155.444 256.605C154.202 255.136 156.018 248.462 156.455 241.686C156.929 234.361 157.202 226.275 157.326 221.906C157.351 221.039 157.706 220.217 158.317 219.613C158.928 219.009 159.745 218.672 160.596 218.673H171.273C172.066 218.671 172.831 218.974 173.414 219.521C173.998 220.067 174.359 220.818 174.424 221.624C174.704 225.083 175.192 231.095 175.672 236.989C176.16 242.97 177.703 248.829 175.183 251.775Z" fill="#FAB9AF"/>
<path d="M165.478 308.729L165.503 315.472L164.928 318.756C164.904 318.89 164.908 319.027 164.941 319.158C164.974 319.29 165.034 319.413 165.117 319.518C165.201 319.624 165.306 319.71 165.425 319.77C165.544 319.831 165.675 319.864 165.808 319.868C168.517 319.953 175.454 320.139 175.639 319.833C176.512 318.395 172.569 317.842 169.685 316.705C166.801 315.567 168.791 304.407 168.791 304.407L165.478 308.729Z" fill="#FA968C"/>
<path d="M169.685 316.705C169.669 316.699 169.656 316.688 169.641 316.681C168.954 316.943 168.18 317.097 167.309 317.097C166.618 317.101 165.931 316.998 165.272 316.791L164.928 318.756C164.904 318.89 164.908 319.027 164.941 319.158C164.974 319.29 165.034 319.413 165.117 319.518C165.201 319.624 165.306 319.71 165.425 319.77C165.544 319.831 165.675 319.864 165.808 319.868C168.517 319.953 175.454 320.139 175.639 319.833C176.511 318.396 172.569 317.842 169.685 316.705Z" fill="#0B4870"/>
<path d="M175.179 254.232C175.283 258.919 173.475 288.654 169.901 288.736C166.328 288.819 162.344 259.218 162.239 254.531C162.135 249.844 164.947 245.978 168.52 245.895C172.094 245.813 175.075 249.545 175.179 254.232Z" fill="#0091C8"/>
<path d="M164.966 282.559C164.612 285.139 164.554 301.669 165.124 310.066H168.377C170.124 301.92 171.991 286.134 172.337 283.611C172.342 283.579 172.344 283.548 172.348 283.516C174.291 274.752 175.256 257.688 175.179 254.232C175.075 249.545 172.093 245.813 168.52 245.895C164.947 245.978 162.135 249.844 162.24 254.531C162.305 257.474 165.134 281.337 164.966 282.559Z" fill="#0B4870"/>
<path d="M157.671 308.729L157.695 315.472L157.12 318.756C157.096 318.89 157.101 319.027 157.133 319.158C157.166 319.29 157.226 319.413 157.31 319.518C157.393 319.624 157.498 319.71 157.618 319.77C157.737 319.831 157.867 319.864 158 319.868C160.709 319.953 167.646 320.139 167.832 319.833C168.704 318.395 164.761 317.842 161.877 316.705C158.993 315.567 160.983 304.407 160.983 304.407L157.671 308.729Z" fill="#FA968C"/>
<path d="M161.877 316.705C161.862 316.699 161.848 316.688 161.833 316.681C161.146 316.943 160.373 317.097 159.501 317.097C158.811 317.101 158.124 316.998 157.464 316.791L157.12 318.756C157.096 318.89 157.101 319.027 157.133 319.158C157.166 319.29 157.226 319.413 157.31 319.518C157.393 319.624 157.498 319.71 157.618 319.77C157.737 319.831 157.867 319.864 158 319.868C160.709 319.953 167.646 320.139 167.832 319.833C168.704 318.396 164.761 317.842 161.877 316.705Z" fill="#0B4870"/>
<path d="M167.373 254.232C167.477 258.919 165.668 288.654 162.095 288.736C158.521 288.819 155.31 259.109 155.205 254.422C155.101 249.735 157.14 245.978 160.713 245.895C164.287 245.813 167.268 249.545 167.373 254.232Z" fill="#0091C8"/>
<path d="M157.159 282.559C156.804 285.139 156.747 301.669 157.317 310.066H160.57C162.317 301.92 164.184 286.134 164.53 283.611C164.535 283.579 164.537 283.548 164.541 283.516C166.484 274.752 168.222 257.579 168.145 254.123C168.041 249.436 164.287 245.813 160.713 245.895C157.14 245.978 155.101 249.735 155.206 254.422C155.271 257.364 157.327 281.337 157.159 282.559Z" fill="#0B4870"/>
<path d="M171.374 218.673H169.64C169.036 220.098 167.758 221.199 165.774 221.199C163.788 221.199 162.51 220.098 161.907 218.673H160.324C159.546 218.671 158.799 218.979 158.24 219.531C157.682 220.082 157.357 220.834 157.334 221.626C157.213 225.922 156.939 234.201 156.455 241.686C156.018 248.462 154.202 254.758 155.444 256.605C155.444 256.605 172.269 255.182 175.184 251.775C177.703 248.829 176.16 242.97 175.672 236.989C175.186 231.038 174.694 224.966 174.415 221.523C174.353 220.746 174.005 220.021 173.441 219.493C172.878 218.965 172.14 218.672 171.374 218.673Z" fill="#FFBE55"/>
<path d="M165.314 214.714C164.529 214.891 163.707 214.744 163.028 214.304C162.35 213.864 161.871 213.168 161.696 212.368L160.833 208.416L163.793 207.746L165.314 214.714Z" fill="#0B4870"/>
<path d="M167.958 218.673H162.376L163.986 213.001L167.791 213.481L167.958 218.673Z" fill="#FAB9AF"/>
<path d="M167.791 213.481L163.986 213.001L163.236 215.645C164.088 216.623 165.351 218.143 166.736 218.143C167.175 218.143 167.575 218.017 167.935 217.784L167.791 213.481Z" fill="#FA968C"/>
<path d="M168.367 216.496C165.861 217.064 163.377 215.454 162.82 212.9L161.696 207.748L169.48 205.984C169.48 205.984 170.357 210.006 170.383 212.849C170.401 214.981 169.645 216.206 168.367 216.496Z" fill="#FAB9AF"/>
<path d="M161.727 209.822L163.19 209.49L163.337 210.166L161.874 210.498L161.727 209.822Z" fill="#41378C"/>
<path d="M163.927 211.626C164.146 212.631 163.852 213.553 163.269 213.685C162.687 213.817 161.757 212.645 161.538 211.64C161.319 210.635 161.893 210.177 162.475 210.045C163.058 209.913 163.707 210.621 163.927 211.626Z" fill="#FAB9AF"/>
<path d="M170.481 207.98C170.523 207.298 170.414 206.614 170.162 205.98C169.536 204.407 167.807 203.73 166.234 204.287C166.073 204.345 165.903 204.394 165.723 204.435L163.095 205.029C162.72 205.114 162.365 205.273 162.05 205.498C161.735 205.723 161.466 206.009 161.26 206.339C161.053 206.67 160.913 207.039 160.846 207.425C160.78 207.811 160.789 208.206 160.872 208.589L161.009 209.213L162.566 210.133L163.201 211.26L163.303 211.237C163.543 211.182 163.754 211.037 163.893 210.83C164.031 210.623 164.087 210.37 164.05 210.122C163.921 209.281 164.331 208.46 165.146 208.275L167.478 207.746C168.897 207.425 169.804 208.034 170.041 209.115L170.168 210.047L170.481 207.98Z" fill="#0B4870"/>
<path d="M162.621 206.102C162.442 207.571 167.625 209.434 168.993 209.606C170.36 209.778 171.612 208.726 171.79 207.256C171.968 205.787 171.005 204.456 169.637 204.284C168.271 204.112 162.799 204.632 162.621 206.102Z" fill="#0B4870"/>
<path d="M156.698 224.219C158.418 226.607 161.365 229.747 164.894 232.459C175.687 240.48 187.237 241.291 196.656 232.212C196.826 232.047 196.931 231.824 196.951 231.586C196.971 231.348 196.905 231.11 196.764 230.918C196.624 230.727 196.42 230.594 196.19 230.545C195.96 230.496 195.721 230.534 195.517 230.653L195.474 230.679C189.331 234.292 183.831 235.774 176.906 232.81C167.828 228.824 161.387 219.233 162.065 220.148C161.535 219.423 160.745 218.942 159.867 218.811C158.989 218.68 158.096 218.909 157.384 219.449C156.673 219.989 156.201 220.795 156.072 221.689C155.943 222.584 156.169 223.494 156.698 224.219Z" fill="#FAB9AF"/>
<path d="M160.468 303.038L152.958 293.895L189.546 262.554L221.363 267.958L257.46 239.546L258.916 240.878L224.497 279.924L193.281 273.013L160.468 303.038Z" fill="#FFBE55"/>
<path d="M259.432 258.408L238.498 237.952L265.523 230.583L259.432 258.408Z" fill="#FFBE55"/>
<path d="M194.833 231.091C195.571 230.214 195.765 227.138 196.18 227.138C196.479 227.138 196.532 228.2 196.538 228.797C196.539 228.831 196.549 228.864 196.567 228.892C196.585 228.921 196.611 228.943 196.642 228.957C196.672 228.971 196.706 228.976 196.739 228.97C196.772 228.965 196.803 228.951 196.828 228.928C197.666 228.177 200.028 226.093 200.272 226.292C200.519 226.493 199.264 228.047 198.836 228.562C198.83 228.57 198.826 228.579 198.826 228.589C198.826 228.599 198.829 228.609 198.835 228.617C198.848 228.633 198.869 228.638 198.887 228.629C199.548 228.288 201.703 227.212 201.753 227.672C201.801 228.11 199.927 229.329 199.195 229.786C199.186 229.792 199.18 229.8 199.177 229.81C199.174 229.82 199.174 229.831 199.178 229.84C199.187 229.86 199.209 229.87 199.229 229.864C200.05 229.616 202.162 229.019 202.21 229.409C202.258 229.805 200.216 230.696 199.482 231.003C199.473 231.006 199.465 231.014 199.461 231.023C199.456 231.032 199.455 231.042 199.457 231.052C199.462 231.073 199.481 231.087 199.501 231.085C200.225 231.027 202.093 230.905 201.805 231.198C201.449 231.561 196.95 233.06 195.942 233.06C194.935 233.06 194.833 231.091 194.833 231.091Z" fill="#FAB9AF"/>
<path d="M270.083 319.421C274.537 323.959 281.751 323.953 286.205 319.421C290.658 314.883 290.658 307.532 286.205 302.993C281.751 298.455 274.537 298.448 270.083 302.993C265.63 307.525 265.63 314.883 270.083 319.421ZM271.883 304.828C275.344 301.302 280.944 301.302 284.404 304.828C287.864 308.347 287.864 314.061 284.404 317.586C280.951 321.113 275.343 321.113 271.883 317.586C268.423 314.061 268.423 308.347 271.883 304.828Z" fill="#0B4870"/>
<path opacity="0.25" d="M271.11 314.156C271.058 313.072 271.23 311.988 271.615 310.976C271.999 309.964 272.589 309.045 273.344 308.279C276.331 305.229 281.164 305.229 284.151 308.279C284.914 309.054 285.507 309.985 285.891 311.011C285.798 309.149 285.058 307.308 283.658 305.888C280.671 302.844 275.837 302.844 272.85 305.888C271.808 306.948 271.089 308.292 270.78 309.76C270.471 311.227 270.586 312.754 271.11 314.156Z" fill="white"/>
<path d="M297.71 331.07C297.986 330.788 298.142 330.405 298.142 330.006C298.142 329.607 297.986 329.225 297.71 328.943L286.853 317.879L284.765 320.006L295.622 331.07C295.899 331.352 296.274 331.51 296.666 331.51C297.057 331.51 297.433 331.352 297.71 331.07Z" fill="#0B4870"/>
<path d="M299.531 332.925C299.721 332.731 299.873 332.501 299.976 332.247C300.079 331.994 300.132 331.722 300.132 331.448C300.132 331.173 300.079 330.901 299.976 330.648C299.873 330.394 299.721 330.164 299.531 329.97L289.488 319.735C289.38 319.625 289.233 319.564 289.081 319.564C288.928 319.564 288.782 319.625 288.674 319.735L286.586 321.863C286.479 321.973 286.418 322.122 286.418 322.277C286.418 322.433 286.479 322.582 286.586 322.692L296.63 332.926C297.014 333.318 297.536 333.538 298.08 333.538C298.624 333.538 299.146 333.318 299.531 332.925Z" fill="#FFBE55"/>
<path d="M134.346 334.219C140.473 333.824 145.125 328.442 144.737 322.199C144.349 315.955 139.068 311.214 132.941 311.61C126.814 312.005 122.161 317.387 122.549 323.631C122.937 329.874 128.219 334.615 134.346 334.219Z" fill="#FFBE55"/>
<path d="M138.384 317.639L136.473 316.912C136.32 316.854 136.15 316.861 136.002 316.93C135.853 316.999 135.737 317.126 135.68 317.282L133.084 324.375C133.028 324.528 132.915 324.653 132.77 324.723C132.626 324.793 132.46 324.803 132.308 324.751L129.326 323.722C129.171 323.668 129.002 323.68 128.855 323.753C128.708 323.827 128.597 323.957 128.544 324.115L127.889 326.084C127.837 326.241 127.848 326.414 127.921 326.563C127.993 326.713 128.121 326.827 128.276 326.881L134.264 328.948C134.416 329.001 134.582 328.991 134.727 328.92C134.872 328.85 134.984 328.726 135.04 328.572L138.746 318.448C138.803 318.291 138.797 318.118 138.729 317.967C138.661 317.815 138.537 317.697 138.384 317.639Z" fill="white"/>
<path d="M73.2721 391.081C91.8319 391.081 106.878 390.637 106.878 390.089C106.878 389.541 91.8319 389.096 73.2721 389.096C54.7122 389.096 39.6665 389.541 39.6665 390.089C39.6665 390.637 54.7122 391.081 73.2721 391.081Z" fill="#D3D3D3"/>
<path d="M122.95 402C141.51 402 156.555 401.556 156.555 401.007C156.555 400.459 141.51 400.015 122.95 400.015C104.39 400.015 89.3442 400.459 89.3442 401.007C89.3442 401.556 104.39 402 122.95 402Z" fill="#D3D3D3"/>
<path d="M184.316 391.081C202.876 391.081 217.922 390.637 217.922 390.089C217.922 389.541 202.876 389.096 184.316 389.096C165.757 389.096 150.711 389.541 150.711 390.089C150.711 390.637 165.757 391.081 184.316 391.081Z" fill="#D3D3D3"/>
<path d="M233.994 402C252.554 402 267.6 401.556 267.6 401.007C267.6 400.459 252.554 400.015 233.994 400.015C215.434 400.015 200.389 400.459 200.389 401.007C200.389 401.556 215.434 402 233.994 402Z" fill="#D3D3D3"/>
<path d="M292.439 391.081C310.999 391.081 326.045 390.637 326.045 390.089C326.045 389.541 310.999 389.096 292.439 389.096C273.879 389.096 258.833 389.541 258.833 390.089C258.833 390.637 273.879 391.081 292.439 391.081Z" fill="#D3D3D3"/>
<path d="M342.117 402C360.677 402 375.722 401.556 375.722 401.007C375.722 400.459 360.677 400.015 342.117 400.015C323.557 400.015 308.511 400.459 308.511 401.007C308.511 401.556 323.557 402 342.117 402Z" fill="#D3D3D3"/>
<path opacity="0.4" d="M323.316 243.609C325.783 249.345 323.219 256.032 317.591 258.546C311.961 261.06 305.399 258.448 302.932 252.712C300.465 246.976 303.028 240.288 308.657 237.775C314.286 235.26 320.849 237.872 323.316 243.609Z" fill="#2A94F4"/>
<path d="M306.253 244.164L314.898 240.303C315.295 240.128 315.743 240.119 316.145 240.279C316.547 240.439 316.871 240.755 317.046 241.158L320.835 249.968C321.007 250.372 321.016 250.828 320.858 251.238C320.701 251.648 320.391 251.978 319.996 252.156L311.35 256.017C310.954 256.193 310.506 256.201 310.104 256.041C309.701 255.881 309.378 255.565 309.203 255.163L305.414 246.353C305.242 245.949 305.233 245.492 305.39 245.082C305.547 244.672 305.857 244.342 306.253 244.164ZM313.799 242.363C313.511 242.492 313.379 242.838 313.505 243.132L314.054 244.409C314.18 244.702 314.519 244.837 314.807 244.709L316.122 244.122C316.41 243.993 316.542 243.648 316.416 243.354L315.867 242.077C315.806 241.936 315.692 241.825 315.551 241.768C315.41 241.712 315.253 241.715 315.114 241.777L313.799 242.363ZM317.232 245.236L316.209 245.693C316.45 245.978 316.648 246.299 316.796 246.644C317.643 248.615 316.712 250.936 314.715 251.828C312.718 252.72 310.411 251.845 309.563 249.874C309.415 249.529 309.318 249.163 309.276 248.789L308.208 249.266L310.361 254.273C310.473 254.532 310.771 254.65 311.026 254.536L319.126 250.919C319.381 250.805 319.497 250.502 319.386 250.242L317.232 245.236ZM312.133 245.823C310.842 246.399 310.24 247.898 310.789 249.173C311.336 250.446 312.827 251.012 314.117 250.436C315.407 249.86 316.008 248.36 315.461 247.087C314.912 245.812 313.422 245.247 312.133 245.823Z" fill="white"/>
<path opacity="0.4" d="M91.6816 279.093C98.0215 279.093 103.161 273.856 103.161 267.396C103.161 260.935 98.0215 255.698 91.6816 255.698C85.3417 255.698 80.2021 260.935 80.2021 267.396C80.2021 273.856 85.3417 279.093 91.6816 279.093Z" fill="#2A94F4"/>
<path d="M88.3706 261.547L96.8714 267.395L88.3706 273.245V261.547Z" fill="white"/>
<path opacity="0.4" d="M71.0219 312.104V303.284C70.1413 303.303 69.3815 303.437 68.5229 303.722C67.4194 304.083 66.3974 304.665 65.516 305.432C64.6346 306.199 63.9113 307.137 63.388 308.191C62.3553 310.242 62.1412 312.621 62.7905 314.83L71.0219 312.104Z" fill="#2A94F4"/>
<path d="M75.1645 313.812L71.2488 312.516L62.9297 315.27C63.8677 318.004 65.7978 319.921 68.5218 320.823C69.4028 321.116 70.3236 321.265 71.2502 321.266C73.0755 321.269 74.8566 320.694 76.3467 319.619C77.8367 318.545 78.9621 317.025 79.5669 315.27L75.1645 313.812Z" fill="#2A94F4"/>
<path opacity="0.1" d="M76.6181 305.136L71.6172 312.15L79.7083 314.829C80.7725 311.197 79.5739 307.438 76.6181 305.136Z" fill="#2A94F4"/>
<path opacity="0.62" d="M71.4766 311.559L76.25 304.864C74.786 303.829 73.2581 303.323 71.4766 303.283V311.559Z" fill="#2A94F4"/>
<path opacity="0.62" d="M112.48 225.538C119.77 225.538 125.68 219.515 125.68 212.086C125.68 204.658 119.77 198.635 112.48 198.635C105.19 198.635 99.2798 204.658 99.2798 212.086C99.2798 219.515 105.19 225.538 112.48 225.538Z" fill="#2A94F4"/>
<path d="M115.876 210.564L114.424 207.795L111.959 209.585L110.826 207.966C110.313 207.232 110.164 206.585 111.197 205.835L112.513 204.878L110.927 202.61C110.678 202.745 109.848 203.243 108.938 203.904C107.037 205.285 106.564 207.411 108.082 209.581L109.391 211.451L107.242 213.011L109.016 215.548L111.164 213.987L115.715 220.493L118.284 218.627L113.733 212.121L115.876 210.564Z" fill="white"/>
<path opacity="0.62" d="M300 192C300 202.493 291.493 211 281 211C270.507 211 262 202.494 262 192C262 181.507 270.507 173 281 173C291.494 173 300 181.507 300 192Z" fill="#2A94F4"/>
<path d="M286.193 201.62C285.952 201.955 285.631 202.223 285.26 202.397L284.291 193.104L292.286 192.325C292.262 192.788 292.108 193.235 291.843 193.613L286.193 201.62ZM281.098 192.334L292.481 191.225C292.306 190.844 292.039 190.514 291.706 190.266L279.648 181.431C279.311 181.187 278.919 181.034 278.508 180.987L281.098 192.334Z" fill="white"/>
<path d="M283.313 193.386L280.678 193.644C280.529 193.658 280.38 193.616 280.258 193.527C280.137 193.438 280.051 193.307 280.016 193.159L279.417 190.531L270.142 192.627C270.314 193.064 270.604 193.442 270.979 193.718L283.036 202.553C283.412 202.827 283.856 202.987 284.317 203.014L283.313 193.386ZM277.275 181.147C276.842 181.324 276.467 181.622 276.194 182.007L270.415 190.197C270.172 190.543 270.022 190.947 269.977 191.37L279.135 189.301L277.275 181.147Z" fill="white"/>
<path d="M328.073 316.993C328.073 316.993 330.551 319.684 332.78 321.913C335.009 324.143 337.997 326.075 337.997 326.075C337.997 326.075 339.065 325.678 340.861 324.636C342.658 323.595 342.81 323.155 342.81 323.155C342.81 323.155 342.068 320.904 340.64 320.952C340.348 320.066 339.816 318.965 338.696 319.026C338.514 318.029 337.592 316.064 336.132 315.877C336.105 314.746 335.451 313.846 335.451 313.846L328.073 316.993Z" fill="#2A94F4"/>
<path d="M337.795 313.256L339.328 316.086C339.328 316.086 339.029 316.487 338.534 316.652C338.038 316.817 336.815 315.59 336.456 314.961C336.097 314.332 335.747 313.496 335.747 313.496L337.795 313.256ZM320.098 311.297C320.098 311.297 320.075 311.741 320.282 312.578C319.899 312.979 319.647 313.492 319.561 314.045C319.475 314.598 319.559 315.164 319.802 315.667C320.045 316.169 320.434 316.582 320.917 316.85C321.4 317.117 321.952 317.226 322.497 317.16C323.023 317.837 323.382 318.089 323.382 318.089L325.819 317.546L323.912 313.603L322.005 309.659L320.098 311.297Z" fill="#2A94F4"/>
<path d="M335.67 297.765C333.358 302.496 328.127 305.552 325.699 306.901C323.27 308.249 322.525 308.365 322.047 309.122C321.569 309.877 323.51 313.805 323.51 313.805C323.51 313.805 325.384 317.766 326.263 317.84C327.143 317.914 327.688 317.382 330.217 316.242C332.745 315.101 338.311 312.736 343.4 313.75C348.49 314.763 351.109 315.468 351.109 315.468L345.069 302.978L339.029 290.489C339.029 290.489 337.982 293.035 335.67 297.765Z" fill="#CCE9FF"/>
<path d="M353.155 312.13C353.56 313.601 353.248 314.716 352.1 315.293C350.952 315.869 349.88 315.483 348.996 314.218C348.996 314.218 347.82 313.191 343.308 303.862C338.796 294.533 338.715 292.957 338.715 292.957C338.526 291.428 338.621 290.371 339.769 289.794C340.917 289.218 341.816 289.598 342.873 290.869C342.873 290.869 344.41 292.641 348.561 301.225C352.713 309.809 353.155 312.13 353.155 312.13Z" fill="#2A94F4"/>
<path d="M348.16 301.426C351.213 307.738 352.575 313.415 352.575 313.415C352.575 313.415 348.987 308.856 345.935 302.544C342.882 296.231 341.52 290.556 341.52 290.556C341.52 290.556 345.108 295.114 348.16 301.426Z" fill="white"/>
<path d="M350.489 289.43C350.365 289.429 350.244 289.394 350.14 289.328C350.035 289.261 349.95 289.166 349.896 289.053C349.841 288.941 349.818 288.814 349.83 288.689C349.842 288.564 349.888 288.445 349.963 288.345L357.953 277.695C358.006 277.624 358.072 277.565 358.147 277.521C358.222 277.476 358.306 277.447 358.392 277.436C358.478 277.424 358.566 277.429 358.65 277.452C358.734 277.475 358.813 277.514 358.882 277.568C358.951 277.622 359.009 277.689 359.052 277.766C359.096 277.843 359.124 277.927 359.136 278.015C359.147 278.103 359.142 278.192 359.12 278.278C359.097 278.364 359.058 278.444 359.006 278.514L351.016 289.165C350.954 289.247 350.874 289.314 350.783 289.36C350.691 289.406 350.591 289.43 350.489 289.43ZM353.504 293.162C353.364 293.162 353.228 293.117 353.115 293.033C353.002 292.95 352.917 292.832 352.874 292.696C352.831 292.561 352.83 292.415 352.873 292.28C352.916 292.144 353 292.026 353.113 291.942L361.736 285.526C361.806 285.474 361.886 285.436 361.971 285.415C362.055 285.394 362.143 285.391 362.229 285.404C362.315 285.418 362.397 285.449 362.472 285.495C362.546 285.541 362.611 285.602 362.662 285.674C362.713 285.745 362.75 285.826 362.771 285.913C362.791 285.999 362.795 286.088 362.781 286.176C362.768 286.263 362.738 286.348 362.692 286.423C362.647 286.499 362.587 286.565 362.517 286.617L353.894 293.033C353.78 293.117 353.644 293.162 353.504 293.162ZM355.704 298.446C355.546 298.446 355.393 298.389 355.273 298.285C355.153 298.181 355.073 298.036 355.048 297.878C355.023 297.719 355.054 297.556 355.137 297.419C355.219 297.282 355.347 297.179 355.497 297.129L370.282 292.173C370.365 292.145 370.452 292.135 370.539 292.141C370.625 292.148 370.71 292.172 370.788 292.212C370.865 292.252 370.934 292.307 370.991 292.374C371.048 292.441 371.091 292.519 371.118 292.603C371.145 292.688 371.156 292.776 371.15 292.865C371.143 292.953 371.12 293.039 371.08 293.119C371.041 293.198 370.987 293.268 370.921 293.326C370.855 293.384 370.779 293.428 370.696 293.456L355.911 298.412C355.844 298.434 355.774 298.446 355.704 298.446ZM358.172 305.051C358.003 305.05 357.841 304.983 357.72 304.864C357.598 304.745 357.525 304.583 357.516 304.412C357.507 304.24 357.563 304.071 357.672 303.94C357.781 303.809 357.935 303.725 358.102 303.705L369.359 302.481C369.533 302.464 369.708 302.517 369.844 302.629C369.98 302.741 370.068 302.903 370.088 303.081C370.097 303.169 370.09 303.258 370.065 303.343C370.04 303.428 370 303.507 369.945 303.576C369.89 303.645 369.823 303.703 369.747 303.745C369.67 303.788 369.586 303.814 369.5 303.824L358.243 305.047C358.219 305.05 358.196 305.052 358.172 305.051Z" fill="#2A94F4"/>
<path d="M244 177.584C244 160.699 225.421 147 202.5 147C179.579 147 161 160.699 161 177.584C161 194.469 179.579 208.168 202.5 208.168C206.842 208.168 211.055 207.658 214.95 206.766L229.954 219V200.522C238.573 194.915 244 186.696 244 177.584Z" fill="#FFBE55"/>
<path d="M220 148.641C220 135.057 205.027 124 186.5 124C167.973 124 153 134.993 153 148.641C153 162.224 167.973 173.281 186.5 173.281C189.99 173.281 193.416 172.902 196.588 172.144L208.643 182V167.153C215.622 162.54 220 155.97 220 148.641Z" fill="#0E538C"/>
<path d="M204.05 139.859H167.95C167.443 139.859 167 139.425 167 138.93C167 138.434 167.443 138 167.95 138H204.05C204.557 138 205 138.434 205 138.93C205 139.425 204.557 139.859 204.05 139.859ZM204.05 146.552H167.95C167.443 146.552 167 146.118 167 145.623C167 145.127 167.443 144.693 167.95 144.693H204.05C204.557 144.693 205 145.127 205 145.623C205 146.118 204.557 146.552 204.05 146.552ZM204.05 153.307H167.95C167.443 153.307 167 152.873 167 152.377C167 151.882 167.443 151.448 167.95 151.448H204.05C204.557 151.448 205 151.882 205 152.377C205 152.873 204.557 153.307 204.05 153.307ZM204.05 160H167.95C167.443 160 167 159.566 167 159.07C167 158.575 167.443 158.141 167.95 158.141H204.05C204.557 158.141 205 158.575 205 159.07C205 159.566 204.557 160 204.05 160Z" fill="#FFBE55"/>
<path d="M303.339 140.516V145.393L308.583 140.516H328.983C330.284 140.516 331.318 139.403 331.318 138.059V107.457C331.318 106.113 330.284 105 328.983 105H296.335C295.033 105 294 106.113 294 107.457V138.059C294 139.403 295.033 140.516 296.335 140.516H303.339Z" fill="#FFBE55"/>
<path d="M57.339 225.516V230.393L62.5826 225.516H82.983C84.2843 225.516 85.3177 224.403 85.3177 223.059V192.457C85.3177 191.113 84.2843 190 82.983 190H50.3347C49.0334 190 48 191.113 48 192.457V223.059C48 224.403 49.0334 225.516 50.3347 225.516H57.339Z" fill="#FFBE55"/>
<path d="M323.127 133.144V131.916C323.127 127.846 319.988 124.582 316.123 124.582H309.119C305.253 124.582 302.114 127.884 302.114 131.916V133.144H323.127ZM317.309 116.02C317.309 118.707 315.204 120.896 312.64 120.896C310.075 120.896 307.97 118.707 307.97 116.02C307.97 113.332 310.075 111.105 312.64 111.105C315.204 111.143 317.309 113.332 317.309 116.02Z" fill="white"/>
<path d="M77.127 218.144V216.916C77.127 212.846 73.9885 209.582 70.1228 209.582H63.1185C59.2528 209.582 56.1143 212.884 56.1143 216.916V218.144H77.127ZM71.3093 201.02C71.3093 203.707 69.2042 205.896 66.6398 205.896C64.0754 205.896 61.9703 203.707 61.9703 201.02C61.9703 198.332 64.0754 196.105 66.6398 196.105C69.2042 196.143 71.3093 198.332 71.3093 201.02Z" fill="white"/>
<path d="M112 141C122.493 141 131 132.493 131 122C131 111.507 122.493 103 112 103C101.507 103 93 111.507 93 122C93 132.493 101.507 141 112 141Z" fill="#0E538C"/>
<path d="M107 112L120 121.5L107 131V112Z" fill="white"/>
</svg>
