<svg width="372" height="305" viewBox="0 0 372 305" fill="none" xmlns="http://www.w3.org/2000/svg">
<path d="M359.92 279.822H11.6889C5.23321 279.822 0 274.49 0 267.911C0 261.333 5.23321 256 11.6889 256H359.92C366.376 256 371.609 261.333 371.609 267.911C371.609 274.49 366.376 279.822 359.92 279.822Z" fill="#D3D3D3"/>
<path d="M49.1905 293.222C67.7504 293.222 82.7961 292.778 82.7961 292.23C82.7961 291.681 67.7504 291.237 49.1905 291.237C30.6307 291.237 15.585 291.681 15.585 292.23C15.585 292.778 30.6307 293.222 49.1905 293.222Z" fill="#D3D3D3"/>
<path d="M98.8683 304.141C117.428 304.141 132.474 303.696 132.474 303.148C132.474 302.6 117.428 302.156 98.8683 302.156C80.3084 302.156 65.2627 302.6 65.2627 303.148C65.2627 303.696 80.3084 304.141 98.8683 304.141Z" fill="#D3D3D3"/>
<path d="M160.235 293.222C178.795 293.222 193.841 292.778 193.841 292.23C193.841 291.681 178.795 291.237 160.235 291.237C141.675 291.237 126.629 291.681 126.629 292.23C126.629 292.778 141.675 293.222 160.235 293.222Z" fill="#D3D3D3"/>
<path d="M209.913 304.141C228.473 304.141 243.518 303.696 243.518 303.148C243.518 302.6 228.473 302.156 209.913 302.156C191.353 302.156 176.307 302.6 176.307 303.148C176.307 303.696 191.353 304.141 209.913 304.141Z" fill="#D3D3D3"/>
<path d="M268.358 293.222C286.917 293.222 301.963 292.778 301.963 292.23C301.963 291.681 286.917 291.237 268.358 291.237C249.798 291.237 234.752 291.681 234.752 292.23C234.752 292.778 249.798 293.222 268.358 293.222Z" fill="#D3D3D3"/>
<path d="M318.035 304.141C336.595 304.141 351.641 303.696 351.641 303.148C351.641 302.6 336.595 302.156 318.035 302.156C299.475 302.156 284.43 302.6 284.43 303.148C284.43 303.696 299.475 304.141 318.035 304.141Z" fill="#D3D3D3"/>
<path d="M307.331 123.64H293.367C290.807 123.64 288.712 121.541 288.712 118.974V110.654C288.712 108.087 290.807 105.988 293.367 105.988H307.331C309.891 105.988 311.986 108.087 311.986 110.654V118.974C311.986 121.541 309.891 123.64 307.331 123.64Z" fill="white"/>
<path d="M288.13 108.71V120.841C288.13 122.513 289.488 123.874 291.156 123.874H309.309C310.977 123.874 312.335 122.513 312.335 120.841V108.71C312.335 107.038 310.977 105.677 309.309 105.677H291.156C289.488 105.716 288.13 107.038 288.13 108.71ZM289.72 121.152C289.681 121.035 289.643 120.957 289.643 120.841V108.71C289.643 108.554 289.681 108.399 289.72 108.282L296.121 113.764L289.72 121.152ZM309.309 107.232C309.426 107.232 309.503 107.271 309.581 107.271L300.232 115.32L290.884 107.271C290.962 107.271 291.078 107.232 291.156 107.232H309.309ZM304.305 113.764L310.706 108.282C310.744 108.437 310.783 108.554 310.783 108.71V120.841C310.783 120.957 310.744 121.035 310.706 121.152L304.305 113.764ZM291.156 122.357C291 122.357 290.845 122.318 290.729 122.279L297.284 114.775L299.728 116.875C299.883 116.991 300.038 117.069 300.232 117.069C300.426 117.069 300.581 116.991 300.737 116.875L303.18 114.775L309.736 122.279C309.581 122.318 309.464 122.357 309.309 122.357H291.156Z" fill="#FFBE55"/>
<path d="M229.053 87.9854C229.696 87.9854 230.217 87.4632 230.217 86.819C230.217 86.1747 229.696 85.6525 229.053 85.6525C228.41 85.6525 227.889 86.1747 227.889 86.819C227.889 87.4632 228.41 87.9854 229.053 87.9854Z" fill="#6B6B6B"/>
<path d="M225.368 89.9684C226.01 89.9684 226.532 89.4462 226.532 88.802C226.532 88.1577 226.01 87.6355 225.368 87.6355C224.725 87.6355 224.204 88.1577 224.204 88.802C224.204 89.4462 224.725 89.9684 225.368 89.9684Z" fill="#6B6B6B"/>
<path d="M221.76 92.068C222.403 92.068 222.924 91.5458 222.924 90.9016C222.924 90.2574 222.403 89.7351 221.76 89.7351C221.118 89.7351 220.597 90.2574 220.597 90.9016C220.597 91.5458 221.118 92.068 221.76 92.068Z" fill="#6B6B6B"/>
<path d="M218.851 95.062C219.493 95.062 220.014 94.5397 220.014 93.8955C220.014 93.2513 219.493 92.729 218.851 92.729C218.208 92.729 217.687 93.2513 217.687 93.8955C217.687 94.5397 218.208 95.062 218.851 95.062Z" fill="#6B6B6B"/>
<path d="M216.368 98.4058C217.011 98.4058 217.532 97.8836 217.532 97.2394C217.532 96.5952 217.011 96.0729 216.368 96.0729C215.726 96.0729 215.205 96.5952 215.205 97.2394C215.205 97.8836 215.726 98.4058 216.368 98.4058Z" fill="#6B6B6B"/>
<path d="M214.467 102.139C215.11 102.139 215.631 101.616 215.631 100.972C215.631 100.328 215.11 99.8056 214.467 99.8056C213.825 99.8056 213.304 100.328 213.304 100.972C213.304 101.616 213.825 102.139 214.467 102.139Z" fill="#6B6B6B"/>
<path d="M213.265 106.143C213.908 106.143 214.429 105.621 214.429 104.977C214.429 104.333 213.908 103.81 213.265 103.81C212.623 103.81 212.102 104.333 212.102 104.977C212.102 105.621 212.623 106.143 213.265 106.143Z" fill="#6B6B6B"/>
<path d="M235.453 122.668C236.096 122.668 236.617 122.146 236.617 121.502C236.617 120.858 236.096 120.335 235.453 120.335C234.811 120.335 234.29 120.858 234.29 121.502C234.29 122.146 234.811 122.668 235.453 122.668Z" fill="#6B6B6B"/>
<path d="M231.264 122.668C231.906 122.668 232.427 122.146 232.427 121.502C232.427 120.858 231.906 120.335 231.264 120.335C230.621 120.335 230.1 120.858 230.1 121.502C230.1 122.146 230.621 122.668 231.264 122.668Z" fill="#6B6B6B"/>
<path d="M227.074 122.668C227.717 122.668 228.238 122.146 228.238 121.502C228.238 120.858 227.717 120.335 227.074 120.335C226.432 120.335 225.911 120.858 225.911 121.502C225.911 122.146 226.432 122.668 227.074 122.668Z" fill="#6B6B6B"/>
<path d="M222.885 122.668C223.528 122.668 224.049 122.146 224.049 121.502C224.049 120.858 223.528 120.335 222.885 120.335C222.242 120.335 221.721 120.858 221.721 121.502C221.721 122.146 222.242 122.668 222.885 122.668Z" fill="#6B6B6B"/>
<path d="M218.696 122.668C219.339 122.668 219.86 122.146 219.86 121.502C219.86 120.858 219.339 120.335 218.696 120.335C218.053 120.335 217.532 120.858 217.532 121.502C217.532 122.146 218.053 122.668 218.696 122.668Z" fill="#6B6B6B"/>
<path d="M283.941 115.903C284.583 115.903 285.104 115.381 285.104 114.736C285.104 114.092 284.583 113.57 283.941 113.57C283.298 113.57 282.777 114.092 282.777 114.736C282.777 115.381 283.298 115.903 283.941 115.903Z" fill="#6B6B6B"/>
<path d="M279.751 115.786C280.394 115.786 280.915 115.264 280.915 114.62C280.915 113.975 280.394 113.453 279.751 113.453C279.108 113.453 278.587 113.975 278.587 114.62C278.587 115.264 279.108 115.786 279.751 115.786Z" fill="#6B6B6B"/>
<path d="M275.562 115.669C276.205 115.669 276.726 115.147 276.726 114.503C276.726 113.859 276.205 113.337 275.562 113.337C274.919 113.337 274.398 113.859 274.398 114.503C274.398 115.147 274.919 115.669 275.562 115.669Z" fill="#6B6B6B"/>
<path d="M271.489 116.68C272.132 116.68 272.653 116.158 272.653 115.514C272.653 114.87 272.132 114.348 271.489 114.348C270.846 114.348 270.325 114.87 270.325 115.514C270.325 116.158 270.846 116.68 271.489 116.68Z" fill="#6B6B6B"/>
<path d="M267.455 117.808C268.097 117.808 268.618 117.286 268.618 116.642C268.618 115.997 268.097 115.475 267.455 115.475C266.812 115.475 266.291 115.997 266.291 116.642C266.291 117.286 266.812 117.808 267.455 117.808Z" fill="#6B6B6B"/>
<path d="M264.003 120.141C264.645 120.141 265.166 119.619 265.166 118.975C265.166 118.33 264.645 117.808 264.003 117.808C263.36 117.808 262.839 118.33 262.839 118.975C262.839 119.619 263.36 120.141 264.003 120.141Z" fill="#6B6B6B"/>
<path d="M260.86 122.863C261.503 122.863 262.024 122.34 262.024 121.696C262.024 121.052 261.503 120.53 260.86 120.53C260.218 120.53 259.697 121.052 259.697 121.696C259.697 122.34 260.218 122.863 260.86 122.863Z" fill="#6B6B6B"/>
<path d="M258.339 126.207C258.982 126.207 259.503 125.684 259.503 125.04C259.503 124.396 258.982 123.874 258.339 123.874C257.696 123.874 257.175 124.396 257.175 125.04C257.175 125.684 257.696 126.207 258.339 126.207Z" fill="#6B6B6B"/>
<path d="M256.555 129.978C257.198 129.978 257.719 129.456 257.719 128.812C257.719 128.167 257.198 127.645 256.555 127.645C255.912 127.645 255.391 128.167 255.391 128.812C255.391 129.456 255.912 129.978 256.555 129.978Z" fill="#6B6B6B"/>
<path d="M303.452 67.3001C304.094 67.3001 304.615 66.7779 304.615 66.1337C304.615 65.4894 304.094 64.9672 303.452 64.9672C302.809 64.9672 302.288 65.4894 302.288 66.1337C302.288 66.7779 302.809 67.3001 303.452 67.3001Z" fill="#6B6B6B"/>
<path d="M300 69.7108C300.642 69.7108 301.163 69.1886 301.163 68.5443C301.163 67.9001 300.642 67.3779 300 67.3779C299.357 67.3779 298.836 67.9001 298.836 68.5443C298.836 69.1886 299.357 69.7108 300 69.7108Z" fill="#6B6B6B"/>
<path d="M296.159 71.305C296.802 71.305 297.323 70.7827 297.323 70.1385C297.323 69.4943 296.802 68.972 296.159 68.972C295.517 68.972 294.996 69.4943 294.996 70.1385C294.996 70.7827 295.517 71.305 296.159 71.305Z" fill="#6B6B6B"/>
<path d="M292.242 72.8214C292.885 72.8214 293.406 72.2991 293.406 71.6549C293.406 71.0107 292.885 70.4885 292.242 70.4885C291.599 70.4885 291.078 71.0107 291.078 71.6549C291.078 72.2991 291.599 72.8214 292.242 72.8214Z" fill="#6B6B6B"/>
<path d="M288.169 73.7157C288.811 73.7157 289.332 73.1934 289.332 72.5492C289.332 71.905 288.811 71.3828 288.169 71.3828C287.526 71.3828 287.005 71.905 287.005 72.5492C287.005 73.1934 287.526 73.7157 288.169 73.7157Z" fill="#6B6B6B"/>
<path d="M284.057 74.5322C284.699 74.5322 285.22 74.01 285.22 73.3657C285.22 72.7215 284.699 72.1993 284.057 72.1993C283.414 72.1993 282.893 72.7215 282.893 73.3657C282.893 74.01 283.414 74.5322 284.057 74.5322Z" fill="#6B6B6B"/>
<path d="M279.868 74.8822C280.51 74.8822 281.032 74.3599 281.032 73.7157C281.032 73.0715 280.51 72.5492 279.868 72.5492C279.225 72.5492 278.704 73.0715 278.704 73.7157C278.704 74.3599 279.225 74.8822 279.868 74.8822Z" fill="#6B6B6B"/>
<path d="M275.678 75.0377C276.321 75.0377 276.842 74.5154 276.842 73.8712C276.842 73.227 276.321 72.7047 275.678 72.7047C275.036 72.7047 274.515 73.227 274.515 73.8712C274.515 74.5154 275.036 75.0377 275.678 75.0377Z" fill="#6B6B6B"/>
<path d="M271.489 74.921C272.132 74.921 272.653 74.3988 272.653 73.7546C272.653 73.1103 272.132 72.5881 271.489 72.5881C270.846 72.5881 270.325 73.1103 270.325 73.7546C270.325 74.3988 270.846 74.921 271.489 74.921Z" fill="#6B6B6B"/>
<path d="M255.663 18.0753C256.305 18.0753 256.826 17.5531 256.826 16.9089C256.826 16.2646 256.305 15.7424 255.663 15.7424C255.02 15.7424 254.499 16.2646 254.499 16.9089C254.499 17.5531 255.02 18.0753 255.663 18.0753Z" fill="#6B6B6B"/>
<path d="M251.629 19.164C252.271 19.164 252.792 18.6418 252.792 17.9976C252.792 17.3534 252.271 16.8311 251.629 16.8311C250.986 16.8311 250.465 17.3534 250.465 17.9976C250.465 18.6418 250.986 19.164 251.629 19.164Z" fill="#6B6B6B"/>
<path d="M248.293 21.6136C248.935 21.6136 249.456 21.0914 249.456 20.4471C249.456 19.8029 248.935 19.2807 248.293 19.2807C247.65 19.2807 247.129 19.8029 247.129 20.4471C247.129 21.0914 247.65 21.6136 248.293 21.6136Z" fill="#6B6B6B"/>
<path d="M245.81 24.8408C246.453 24.8408 246.974 24.3186 246.974 23.6744C246.974 23.0301 246.453 22.5079 245.81 22.5079C245.167 22.5079 244.646 23.0301 244.646 23.6744C244.646 24.3186 245.167 24.8408 245.81 24.8408Z" fill="#6B6B6B"/>
<path d="M244.336 28.7679C244.979 28.7679 245.5 28.2457 245.5 27.6015C245.5 26.9572 244.979 26.435 244.336 26.435C243.693 26.435 243.172 26.9572 243.172 27.6015C243.172 28.2457 243.693 28.7679 244.336 28.7679Z" fill="#6B6B6B"/>
<path d="M243.87 32.9283C244.513 32.9283 245.034 32.4061 245.034 31.7619C245.034 31.1176 244.513 30.5954 243.87 30.5954C243.228 30.5954 242.707 31.1176 242.707 31.7619C242.707 32.4061 243.228 32.9283 243.87 32.9283Z" fill="#6B6B6B"/>
<path d="M244.181 37.1276C244.823 37.1276 245.344 36.6053 245.344 35.9611C245.344 35.3169 244.823 34.7946 244.181 34.7946C243.538 34.7946 243.017 35.3169 243.017 35.9611C243.017 36.6053 243.538 37.1276 244.181 37.1276Z" fill="#6B6B6B"/>
<path d="M176.531 244.953C176.841 244.836 177.113 244.758 177.423 244.642C177.423 244.642 177.307 244.408 177.113 243.942C173.932 237.332 147.477 185.074 96.4685 175.043C96.0806 174.965 95.6539 174.887 95.266 174.809C88.7881 173.643 81.961 173.137 74.7461 173.487C74.7461 173.487 64.6219 173.682 52.1703 182.469C51.8987 182.663 51.6272 182.858 51.3169 183.052C45.7311 187.135 39.7187 193.006 33.939 201.327L33.5898 201.793C33.5898 201.793 33.6674 202.027 33.8614 202.454C35.6457 206.576 46.0414 228.544 70.6343 242.97C70.9446 243.164 71.2938 243.358 71.6041 243.514C93.9083 256.306 127.539 262.761 176.531 244.953Z" fill="#0B4870"/>
<path d="M177.307 245.186L177.423 244.642L177.54 244.097L177.113 243.981L33.939 201.405L33.5898 201.871C33.5898 201.871 33.6674 202.104 33.8614 202.532L176.531 244.953L177.307 245.186Z" fill="white"/>
<path d="M71.6426 243.631L93.0159 219.601L92.3177 218.746L70.6729 243.086C70.9832 243.281 71.2935 243.436 71.6426 243.631ZM119.16 227.339L120.363 227.495L96.4682 175.081C96.0803 175.004 95.6536 174.926 95.2657 174.848L119.16 227.339ZM65.5526 211.786L66.4059 211.242L52.1312 182.508C51.8597 182.702 51.5882 182.897 51.2778 183.091L65.5526 211.786Z" fill="white"/>
<path d="M174.514 242.659L174.979 243.008C174.979 243.008 175.057 242.853 175.251 242.62C177.733 238.693 196.74 206.731 184.832 175.898C184.754 175.665 184.638 175.392 184.56 175.159C183.009 171.271 180.953 167.422 178.315 163.65C178.315 163.65 174.785 158.284 165.863 154.552C165.67 154.474 165.476 154.396 165.243 154.318C161.17 152.685 155.972 151.441 149.572 151.169H149.184C149.184 151.169 149.106 151.286 148.912 151.558C147.322 153.891 139.06 166.916 139.68 185.074C139.68 185.307 139.68 185.541 139.719 185.774C140.456 202.066 148.408 222.323 174.514 242.659Z" fill="#2A94F4"/>
<path d="M174.669 243.164L175.018 243.047L175.367 242.931L175.29 242.659L149.572 151.247H149.184C149.184 151.247 149.107 151.363 148.913 151.635L174.514 242.736L174.669 243.164Z" fill="white"/>
<path d="M139.719 185.774L159.812 189.157L160.006 188.496L139.642 185.074C139.68 185.307 139.68 185.541 139.719 185.774ZM164.545 205.837L164.855 206.537L184.832 175.937C184.754 175.704 184.638 175.431 184.56 175.198L164.545 205.837ZM154.692 171.738L155.274 172.01L165.825 154.591C165.631 154.513 165.437 154.435 165.204 154.357L154.692 171.738Z" fill="white"/>
<path d="M174.824 244.758C175.096 244.797 175.367 244.797 175.6 244.836V244.253C175.6 238.498 174.397 192.578 139.176 168.005C138.904 167.81 138.633 167.616 138.323 167.422C133.823 164.389 128.78 161.667 123.156 159.451C123.156 159.451 115.359 156.107 102.713 158.051C102.442 158.09 102.132 158.129 101.86 158.168C96.1191 159.14 89.4084 161.2 81.9995 165.089C81.8443 165.166 81.7279 165.244 81.5728 165.322C81.5728 165.322 81.5728 165.516 81.534 165.905C81.3788 169.405 81.34 188.457 94.8778 207.081C95.0717 207.315 95.2269 207.548 95.4208 207.82C107.756 224.384 131.069 240.481 174.824 244.758Z" fill="#FFBE55"/>
<path d="M175.328 245.186L175.6 244.836L175.872 244.486L175.6 244.253L81.9997 165.089C81.8445 165.166 81.7281 165.244 81.573 165.322C81.573 165.322 81.573 165.516 81.5342 165.905L174.785 244.758L175.328 245.186Z" fill="white"/>
<path d="M95.421 207.781L120.402 198.177L120.169 197.322L94.8779 207.043C95.0719 207.315 95.227 207.548 95.421 207.781ZM137.547 212.603L138.4 213.147L139.215 167.966C138.943 167.772 138.672 167.577 138.362 167.383L137.547 212.603ZM102.326 183.247L103.179 183.169L102.714 158.012C102.442 158.051 102.132 158.09 101.86 158.129L102.326 183.247Z" fill="white"/>
<path d="M197.439 247.013L196.004 258.289L191.155 260.039L192.435 246.508L197.439 247.013ZM175.328 247.013L173.893 258.289L169.044 260.039L170.324 246.508L175.328 247.013Z" fill="#DBA17B"/>
<path d="M181.612 107.504L173.971 117.264L181.263 121.23L189.448 111.081L181.612 107.504Z" fill="#CC9271"/>
<path d="M201.201 108.204C200.969 106.727 200.814 105.21 200.697 103.694C200.62 102.488 200.658 101.283 200.697 100.078C200.814 98.8724 200.814 97.6671 200.736 96.5395C200.736 96.5784 200.697 96.6173 200.697 96.6561C200.62 95.6452 200.464 94.6343 200.193 93.6622C199.417 91.2126 197.827 88.9186 195.344 88.0632C190.379 86.3913 184.328 91.0571 181.806 98.5225C179.285 105.988 181.263 113.414 186.228 115.086C189.758 116.292 193.831 114.27 196.779 110.343C197.943 110.304 199.107 110.226 200.232 109.915C200.62 109.798 201.007 109.643 201.201 109.293C201.318 108.943 201.279 108.554 201.201 108.204Z" fill="#DBA17B"/>
<path d="M205.313 95.9174C206.904 95.373 208.261 94.0122 208.571 92.3791C208.882 90.7072 207.951 88.8408 206.36 88.2965C205.158 87.8688 203.723 88.2187 202.637 87.5966C201.977 87.2078 201.55 86.5468 201.085 85.9636C198.525 82.6975 194.297 80.8311 190.185 81.1422C186.073 81.4532 182.155 83.9028 180.1 87.48C178.354 90.5128 177.927 94.1288 178.238 97.5893C178.548 101.05 179.595 104.433 180.604 107.738C182.311 104.355 184.017 100.972 185.724 97.6282C186.112 96.8894 186.5 96.1118 187.198 95.6841C187.896 95.2564 188.983 95.2953 189.37 95.9951C189.642 96.4617 189.564 97.045 189.564 97.5504C189.564 98.0948 189.642 98.7169 190.107 98.9502C190.612 99.2224 191.271 98.9113 191.737 98.5614C192.745 97.8226 193.637 96.9283 194.452 95.9563C194.956 95.3341 195.46 94.5565 196.197 94.2454C197.012 93.8955 197.71 94.2843 198.447 94.712C199.456 95.2953 200.503 95.8396 201.667 96.0729C202.869 96.3062 204.149 96.3062 205.313 95.9174ZM200.193 166.644C201.706 176.365 203.141 193.278 204.654 202.999C206.865 217.269 199.844 238.615 197.245 252.807C195.344 252.574 193.676 251.99 191.775 251.757C192.396 227.689 191.31 197.011 189.758 172.982C193.133 173.409 196.818 166.216 200.193 166.644Z" fill="#0B4870"/>
<path d="M176.647 173.409C178.626 173.526 180.565 171.738 182.544 171.893C184.949 172.049 187.547 172.515 189.836 173.215C192.125 173.915 194.801 171.776 197.051 170.999C197.516 174.887 196.702 181.808 195.965 185.657C194.258 194.678 192.28 203.621 189.991 212.486C188.75 217.385 185.065 222.09 183.125 226.756C182.311 228.739 181.535 230.8 180.798 232.821C179.246 237.021 176.57 248.841 175.018 253.04C173.118 252.885 171.178 252.846 169.277 252.69C169.471 248.452 171.139 236.243 171.294 232.005C171.605 224.928 175.135 217.502 177.928 210.97C176.531 204.204 176.492 196.855 176.531 189.934C176.57 183.83 176.609 179.475 176.647 173.409Z" fill="#0E538C"/>
<path d="M203.451 147.281C204.15 147.397 204.964 147.358 205.507 146.892C205.779 146.659 205.973 146.309 206.167 146.036C206.826 145.259 207.951 144.87 208.921 145.103C210.938 145.609 211.908 148.175 213.925 148.603C214.235 148.68 214.545 148.68 214.856 148.797C215.166 148.914 215.437 149.108 215.476 149.419C215.554 149.808 215.282 150.119 215.011 150.43C214.662 150.819 214.274 151.208 213.925 151.597C213.769 151.752 213.575 151.947 213.382 152.024C212.955 152.219 212.412 152.024 212.063 152.296C211.752 152.53 211.675 152.996 211.326 153.23C210.821 153.541 210.123 153.074 209.541 153.307C209.231 153.424 209.037 153.696 208.804 153.852C208.378 154.124 207.796 154.085 207.292 153.93C206.787 153.735 206.361 153.424 205.934 153.191C205.352 152.88 204.731 152.646 204.111 152.452C202.404 152.024 200.581 152.141 198.796 152.296C198.719 150.897 198.68 149.497 198.603 148.097C198.603 147.864 198.603 147.592 198.719 147.358C198.952 146.931 199.572 146.931 200.077 147.047C200.697 147.203 201.008 147.164 201.589 147.047C202.171 146.931 202.869 147.203 203.451 147.281Z" fill="#DBA17B"/>
<path d="M208.029 152.646C207.835 152.335 207.912 151.908 208.223 151.713L219.394 144.326C219.704 144.131 220.131 144.209 220.325 144.52C220.519 144.831 220.441 145.259 220.131 145.453L208.96 152.841C208.649 153.035 208.223 152.957 208.029 152.646Z" fill="#0B4870"/>
<path d="M199.107 252.457C199.262 252.107 199.689 251.99 199.96 252.224C201.163 253.235 204.382 255.529 210.783 257.006C210.783 257.006 212.334 257.317 213.459 259.145H189.72V254.945C189.72 254.479 190.263 254.245 190.612 254.518L191.543 255.295C191.97 255.684 192.551 255.878 193.094 255.878L196.508 255.917C197.245 255.917 197.904 255.49 198.176 254.79L199.107 252.457Z" fill="#CCE9FF"/>
<path d="M213.486 261.605H189.747V259.156H213.486V261.605Z" fill="#0E538C"/>
<path d="M175.91 253.779C176.143 253.507 176.609 253.546 176.803 253.857C177.578 255.218 179.867 258.445 185.336 262.061C185.336 262.061 186.694 262.916 187.159 264.977L164.816 256.928L166.252 252.962C166.407 252.535 166.989 252.457 167.221 252.885L167.803 253.934C168.075 254.44 168.54 254.829 169.083 255.023L172.264 256.19C172.962 256.462 173.738 256.228 174.204 255.684L175.91 253.779Z" fill="#CCE9FF"/>
<path d="M186.288 267.295L163.952 259.236L164.779 256.931L187.116 264.99L186.288 267.295Z" fill="#0E538C"/>
<path d="M199.456 145.298C201.163 151.013 202.443 159.995 203.257 165.905C203.451 167.305 203.335 172.593 202.365 173.604C201.783 174.226 186.772 175.898 180.527 177.959C179.673 178.231 175.6 179.825 174.786 179.475C173.622 178.97 173.001 173.837 173.273 172.632C176.88 157.04 176.88 168.51 171.605 137.832C170.557 131.689 168.54 126.012 170.635 120.141C171.333 118.197 176.609 112.52 176.609 112.52C176.609 112.52 178.393 114.425 180.216 115.514C181.729 116.408 183.707 118.002 184.987 118.313C190.845 119.674 197.4 138.416 199.456 145.298Z" fill="#2A94F4"/>
<path d="M192.202 186.902C192.707 187.99 192.939 189.196 193.056 190.362C193.211 192.423 192.978 194.484 192.396 196.428C191.543 196.233 190.845 195.456 190.728 194.561C191.116 195.183 190.767 196.117 190.069 196.311C189.371 196.505 188.595 195.844 188.634 195.106C188.44 195.728 187.741 196.194 187.121 196.078C186.461 195.961 185.957 195.339 185.996 194.678C186.267 194.872 186.19 195.339 185.957 195.533C185.686 195.728 185.298 195.689 185.026 195.533C184.755 195.378 184.561 195.067 184.444 194.756C184.25 194.211 184.173 193.628 184.134 193.045C183.94 190.556 183.785 188.029 183.591 185.541C183.552 185.191 183.552 184.841 183.707 184.53C184.018 183.947 184.832 183.869 185.53 183.908L188.207 184.024C188.789 184.063 189.409 184.024 189.952 184.219C190.922 184.685 191.737 185.968 192.202 186.902Z" fill="#DBA17B"/>
<path d="M182.505 128.501C182.195 133.75 181.884 139.038 181.535 144.287C181.341 147.203 181.186 150.158 181.613 153.035C181.962 155.446 182.699 157.779 183.436 160.073C186.112 168.394 188.789 176.714 191.504 185.035C188.634 184.841 185.724 184.646 182.854 184.452C180.565 175.548 176.143 159.645 175.755 158.207C172.575 148.214 171.45 137.599 172.458 127.179L182.505 128.501Z" fill="#2A94F4"/>
<path d="M169.239 77.3706C169.239 67.0668 157.951 58.7072 144.025 58.7072C130.099 58.7072 118.812 67.0668 118.812 77.3706C118.812 87.6744 130.099 96.034 144.025 96.034C146.663 96.034 149.223 95.723 151.589 95.1786L160.705 102.644V91.3682C165.941 87.9466 169.239 82.9308 169.239 77.3706Z" fill="#FFBE55"/>
<path d="M154.692 59.2904C154.692 50.9307 145.537 44.1264 134.211 44.1264C122.884 44.1264 113.729 50.8919 113.729 59.2904C113.729 67.6501 122.884 74.4544 134.211 74.4544C136.344 74.4544 138.439 74.2212 140.378 73.7546L147.748 79.8202V70.6829C152.015 67.8445 154.692 63.8007 154.692 59.2904Z" fill="#0E538C"/>
<path d="M144.801 53.8469H122.69C122.38 53.8469 122.108 53.5747 122.108 53.2637C122.108 52.9526 122.38 52.6804 122.69 52.6804H144.801C145.111 52.6804 145.382 52.9526 145.382 53.2637C145.382 53.5747 145.111 53.8469 144.801 53.8469ZM144.801 58.0462H122.69C122.38 58.0462 122.108 57.774 122.108 57.4629C122.108 57.1519 122.38 56.8797 122.69 56.8797H144.801C145.111 56.8797 145.382 57.1519 145.382 57.4629C145.382 57.774 145.111 58.0462 144.801 58.0462ZM144.801 62.2843H122.69C122.38 62.2843 122.108 62.0121 122.108 61.7011C122.108 61.39 122.38 61.1178 122.69 61.1178H144.801C145.111 61.1178 145.382 61.39 145.382 61.7011C145.382 62.0121 145.111 62.2843 144.801 62.2843ZM144.801 66.4836H122.69C122.38 66.4836 122.108 66.2114 122.108 65.9003C122.108 65.5893 122.38 65.3171 122.69 65.3171H144.801C145.111 65.3171 145.382 65.5893 145.382 65.9003C145.382 66.2114 145.111 66.4836 144.801 66.4836Z" fill="#FFBE55"/>
<path opacity="0.62" d="M244.672 139.956C250.757 139.956 255.69 134.811 255.69 128.464C255.69 122.117 250.757 116.972 244.672 116.972C238.587 116.972 233.655 122.117 233.655 128.464C233.655 134.811 238.587 139.956 244.672 139.956Z" fill="#2A94F4"/>
<path d="M247.418 127.192L246.149 124.865L243.997 126.37L243.008 125.009C242.56 124.392 242.43 123.849 243.332 123.218L244.481 122.414L243.096 120.508C242.879 120.621 242.154 121.04 241.359 121.596C239.7 122.756 239.287 124.543 240.612 126.366L241.755 127.937L239.878 129.249L241.427 131.38L243.303 130.069L247.277 135.536L249.52 133.968L245.547 128.5L247.418 127.192Z" fill="white"/>
<path opacity="0.4" d="M275.952 6.63818C278.296 12.0029 275.86 18.2573 270.511 20.6083C265.162 22.9592 258.926 20.5164 256.582 15.1522C254.238 9.78747 256.673 3.533 262.023 1.18206C267.371 -1.16934 273.608 1.2735 275.952 6.63818Z" fill="#2A94F4"/>
<path d="M259.319 6.6978L268.06 3.06905C268.461 2.90414 268.914 2.89605 269.321 3.04653C269.727 3.19702 270.055 3.49387 270.231 3.87223L274.062 12.1521C274.236 12.5314 274.245 12.9605 274.086 13.3458C273.927 13.731 273.614 14.041 273.214 14.2081L264.473 17.8368C264.073 18.0019 263.619 18.0101 263.213 17.8597C262.806 17.7093 262.478 17.4125 262.302 17.0341L258.471 8.75424C258.297 8.37488 258.288 7.94568 258.447 7.56038C258.606 7.17507 258.92 6.86497 259.319 6.6978ZM266.949 5.00516C266.657 5.12643 266.524 5.45106 266.651 5.72718L267.206 6.92728C267.334 7.2034 267.677 7.33027 267.968 7.20947L269.297 6.65769C269.588 6.53688 269.722 6.21226 269.595 5.93614L269.04 4.73604C268.978 4.60322 268.863 4.49899 268.72 4.44612C268.577 4.39325 268.418 4.39602 268.278 4.45385L266.949 5.00516ZM270.419 7.7048L269.385 8.13438C269.629 8.40259 269.829 8.70379 269.979 9.02803C270.835 10.8802 269.893 13.0621 267.875 13.9003C265.856 14.7379 263.524 13.9156 262.666 12.0635C262.517 11.7392 262.418 11.3955 262.375 11.0439L261.295 11.4921L263.473 16.1978C263.586 16.4418 263.888 16.5523 264.145 16.4455L272.334 13.0458C272.592 12.939 272.71 12.654 272.597 12.41L270.419 7.7048ZM265.264 8.25658C263.959 8.79809 263.351 10.2071 263.905 11.4049C264.459 12.6013 265.966 13.1335 267.27 12.5919C268.574 12.0504 269.182 10.6404 268.629 9.44408C268.074 8.24631 266.568 7.71506 265.264 8.25658Z" fill="white"/>
<path d="M245.113 98.4088C254.362 98.4088 261.86 90.8892 261.86 81.6133C261.86 72.3373 254.362 64.8177 245.113 64.8177C235.864 64.8177 228.367 72.3373 228.367 81.6133C228.367 90.8892 235.864 98.4088 245.113 98.4088Z" fill="#0E538C"/>
<path d="M240.706 72.7735L252.164 81.1709L240.706 89.5691V72.7735Z" fill="white"/>
<path d="M315.726 67.3253C323.552 66.8182 329.495 59.9169 328.999 51.9108C328.504 43.9046 321.757 37.8254 313.931 38.3325C306.105 38.8395 300.162 45.7409 300.658 53.747C301.153 61.7532 307.9 67.8324 315.726 67.3253Z" fill="#FFBE55"/>
<path d="M321.278 46.3204L318.812 45.4192C318.615 45.347 318.396 45.3548 318.204 45.4407C318.012 45.5267 317.862 45.6837 317.788 45.8775L314.438 54.6813C314.365 54.8712 314.22 55.0261 314.034 55.1132C313.847 55.2002 313.633 55.2125 313.437 55.1475L309.589 53.8701C309.389 53.8038 309.17 53.8179 308.981 53.9095C308.792 54.0011 308.647 54.1626 308.579 54.3585L307.735 56.8014C307.667 56.9973 307.682 57.2115 307.775 57.397C307.869 57.5824 308.033 57.724 308.233 57.7906L315.961 60.3567C316.157 60.4216 316.371 60.4093 316.558 60.3223C316.745 60.2352 316.89 60.0803 316.963 59.8904L321.745 47.3244C321.819 47.1305 321.811 46.9159 321.724 46.7276C321.636 46.5394 321.476 46.3929 321.278 46.3204Z" fill="white"/>
<path opacity="0.4" d="M67.4925 153.298C73.0806 153.298 77.6105 148.668 77.6105 142.957C77.6105 137.246 73.0806 132.617 67.4925 132.617C61.9045 132.617 57.3745 137.246 57.3745 142.957C57.3745 148.668 61.9045 153.298 67.4925 153.298Z" fill="#2A94F4"/>
<path opacity="0.4" d="M272.877 210.674C283.83 210.674 292.709 201.769 292.709 190.785C292.709 179.8 283.83 170.895 272.877 170.895C261.925 170.895 253.046 179.8 253.046 190.785C253.046 201.769 261.925 210.674 272.877 210.674Z" fill="#2A94F4"/>
<path d="M64.5742 137.787L72.0668 142.957L64.5742 148.128V137.787Z" fill="white"/>
<path d="M267.148 180.619L281.251 190.784L267.148 200.95V180.619Z" fill="white"/>
<path opacity="0.62" d="M85.8246 105.956C92.2502 105.956 97.4592 100.632 97.4592 94.0654C97.4592 87.4984 92.2502 82.1749 85.8246 82.1749C79.3989 82.1749 74.1899 87.4984 74.1899 94.0654C74.1899 100.632 79.3989 105.956 85.8246 105.956Z" fill="#2A94F4"/>
<path d="M88.8182 92.7193L87.5377 90.2717L85.3656 91.8542L84.3671 90.4226C83.9146 89.7738 83.7832 89.2021 84.6937 88.5392L85.8541 87.6934L84.4559 85.6885C84.2366 85.8074 83.5051 86.2478 82.7023 86.8326C81.0273 88.0527 80.6105 89.9322 81.9485 91.8502L83.1016 93.5033L81.2076 94.8831L82.771 97.1249L84.665 95.7451L88.6761 101.496L90.9406 99.8467L86.9294 94.0956L88.8182 92.7193Z" fill="white"/>
<path d="M85.5796 52.442C94.8286 52.442 102.326 44.9223 102.326 35.6464C102.326 26.3705 94.8286 18.8508 85.5796 18.8508C76.3307 18.8508 68.833 26.3705 68.833 35.6464C68.833 44.9223 76.3307 52.442 85.5796 52.442Z" fill="#0E538C"/>
<path d="M81.1724 26.8066L92.6306 35.2041L81.1724 43.6022V26.8066Z" fill="white"/>
<path d="M182.832 40.5228V44.8333L187.454 40.5228H205.435C206.582 40.5228 207.493 39.5385 207.493 38.3506V11.2993C207.493 10.1114 206.582 9.12708 205.435 9.12708H176.659C175.512 9.12708 174.601 10.1114 174.601 11.2993V38.3506C174.601 39.5385 175.512 40.5228 176.659 40.5228H182.832Z" fill="#FFBE55"/>
<path d="M200.274 34.0061V32.92C200.274 29.3222 197.507 26.4372 194.1 26.4372H187.926C184.519 26.4372 181.753 29.3561 181.753 32.92V34.0061H200.274ZM195.146 18.8683C195.146 21.2441 193.29 23.1788 191.03 23.1788C188.77 23.1788 186.914 21.2441 186.914 18.8683C186.914 16.4924 188.77 14.5238 191.03 14.5238C193.29 14.5577 195.146 16.4924 195.146 18.8683Z" fill="white"/>
</svg>
