<svg width="372" height="354" viewBox="0 0 372 354" fill="none" xmlns="http://www.w3.org/2000/svg">
<path d="M49.1905 299.222C67.7504 299.222 82.7961 298.778 82.7961 298.23C82.7961 297.681 67.7504 297.237 49.1905 297.237C30.6307 297.237 15.585 297.681 15.585 298.23C15.585 298.778 30.6307 299.222 49.1905 299.222Z" fill="#D3D3D3"/>
<path d="M98.8683 310.141C117.428 310.141 132.474 309.696 132.474 309.148C132.474 308.6 117.428 308.156 98.8683 308.156C80.3084 308.156 65.2627 308.6 65.2627 309.148C65.2627 309.696 80.3084 310.141 98.8683 310.141Z" fill="#D3D3D3"/>
<path d="M160.235 299.222C178.795 299.222 193.841 298.778 193.841 298.23C193.841 297.681 178.795 297.237 160.235 297.237C141.675 297.237 126.629 297.681 126.629 298.23C126.629 298.778 141.675 299.222 160.235 299.222Z" fill="#D3D3D3"/>
<path d="M209.913 310.141C228.473 310.141 243.518 309.696 243.518 309.148C243.518 308.6 228.473 308.156 209.913 308.156C191.353 308.156 176.307 308.6 176.307 309.148C176.307 309.696 191.353 310.141 209.913 310.141Z" fill="#D3D3D3"/>
<path d="M268.358 299.222C286.917 299.222 301.963 298.778 301.963 298.23C301.963 297.681 286.917 297.237 268.358 297.237C249.798 297.237 234.752 297.681 234.752 298.23C234.752 298.778 249.798 299.222 268.358 299.222Z" fill="#D3D3D3"/>
<path d="M318.035 310.141C336.595 310.141 351.641 309.696 351.641 309.148C351.641 308.6 336.595 308.156 318.035 308.156C299.475 308.156 284.43 308.6 284.43 309.148C284.43 309.696 299.475 310.141 318.035 310.141Z" fill="#D3D3D3"/>
<path d="M359.92 285.822H11.6889C5.23321 285.822 0 280.49 0 273.911C0 267.333 5.23321 262 11.6889 262H359.92C366.376 262 371.609 267.333 371.609 273.911C371.609 280.49 366.376 285.822 359.92 285.822Z" fill="#D3D3D3"/>
<path d="M254.303 187.065C254.303 187.065 235.474 214.207 216.258 205.389C197 196.571 211.454 188.829 211.454 188.829C211.454 188.829 207.894 181.387 231.227 189.646C242.251 193.474 254.303 187.065 254.303 187.065Z" fill="#FFBE55"/>
<path d="M231.356 103.318C231.356 103.318 249.585 124.825 225.223 154.547C200.86 184.312 204.634 200.055 204.634 200.055C204.634 200.055 170.664 148.31 231.356 103.318Z" fill="#0E538C"/>
<path d="M208.238 198.679C196.914 200.958 206.093 167.881 223.078 157.816C240.106 147.751 255.29 146.762 264.855 137.041C264.855 137.041 264.083 187.366 208.238 198.679Z" fill="#2A94F4"/>
<path d="M230.756 250.467C230.756 250.467 234.959 257.607 236.718 258.768C239.12 260.36 237.618 261.951 236.46 261.951C235.302 261.951 229.512 262.382 228.225 260.919C226.938 259.457 226.295 255.069 225.094 253.951C223.893 252.79 222.649 248.273 225.694 247.155C228.354 246.122 230.756 250.467 230.756 250.467Z" fill="#0E538C"/>
<path d="M228.954 247.327C228.954 247.327 233.758 255.671 234.573 256.919C235.388 258.166 233.029 258.166 231.528 257.564C230.069 256.962 226.338 250.983 225.78 249.908C225.137 248.617 225.651 247.112 225.651 247.112L228.954 247.327Z" fill="#FFE3CA"/>
<path d="M224.065 251.843L225.18 260.36L225.78 260.403L225.609 254.252L224.065 251.843ZM189.666 253.478C189.666 253.478 193.869 260.618 195.627 261.779C198.029 263.371 196.528 264.962 195.37 264.962C194.212 264.962 188.422 265.392 187.135 263.93C185.848 262.468 185.205 258.08 184.004 256.962C182.803 255.801 181.516 251.155 184.604 250.166C187.264 249.262 189.666 253.478 189.666 253.478Z" fill="#0E538C"/>
<path d="M188.078 250.381C188.078 250.381 192.625 258.682 193.44 259.93C194.255 261.177 191.896 261.177 190.394 260.575C188.936 259.973 185.204 253.994 184.647 252.919C184.003 251.628 184.518 250.123 184.518 250.123L188.078 250.381Z" fill="#FFE3CA"/>
<path d="M182.974 254.854L184.089 263.371L184.647 263.414L184.475 257.263L182.974 254.854Z" fill="#0E538C"/>
<path d="M171.05 188.657L208.967 205.991C208.967 205.991 213.213 207.367 213.685 212.099C215.143 226.809 226.123 250.123 226.123 250.123C229.641 251.843 229.383 250.338 229.383 250.338C227.153 243.198 224.451 213.776 223.507 201.948C223.293 199.453 223.164 197.732 223.164 197.173C223.164 196.786 222.735 196.313 222.049 195.754C216.859 191.539 195.456 182.764 195.456 182.764C179.328 182.334 171.05 188.657 171.05 188.657Z" fill="#FFE3CA"/>
<path d="M163.93 196.098C165.088 206.378 179.714 205.217 179.714 205.217H197.429C197.429 205.217 192.754 215.626 190.995 224.358C189.108 233.649 184.604 250.123 184.604 250.123C184.604 250.123 184.904 250.682 188.121 250.381C188.121 250.381 202.018 222.551 207.38 215.583C208.538 214.078 211.798 205.905 212.355 201.044C212.527 199.41 212.441 198.12 211.798 197.646C211.197 197.13 209.782 196.141 207.894 194.98C202.361 191.452 192.711 186.076 187.306 184.871C180.101 183.237 168.734 180.226 168.734 180.226C168.734 180.226 162.729 185.818 163.93 196.098Z" fill="#FFE3CA"/>
<path d="M175.983 116.953C175.983 116.953 173.324 111.921 174.61 106.501C175.897 101.124 180.873 95.7477 188.164 98.2425C195.456 100.694 201.332 106.372 196.957 112.953C192.582 119.534 200.903 122.502 198.801 125.599C196.7 128.739 197.472 131.965 198.372 132.696C199.273 133.427 202.147 136.008 201.847 139.062C201.546 142.116 187.692 130.115 187.692 130.115C187.692 130.115 180.229 115.018 175.983 116.953Z" fill="#0E538C"/>
<path d="M198.201 181.516C198.201 181.516 197.085 186.85 168.777 180.097C168.777 180.14 178.256 176.957 198.201 181.516Z" fill="#EB4747"/>
<path d="M168.477 181.645C168.048 182.506 167.619 183.323 167.147 184.183L198.201 185.087C196.571 179.581 197.086 172.14 197.386 166.505C197.729 159.623 201.547 154.805 201.118 147.837C203.176 148.181 203.52 148.224 205.578 148.568C202.447 139.621 201.375 135.148 191.639 131.707C188.465 130.589 186.363 130.374 182.931 130.632C171.651 131.578 168.262 131.707 162.687 141.944C171.351 143.321 169.935 146.461 172.552 155.106C173.838 159.322 175.168 164.053 174.482 168.483C173.838 172.828 168.477 177.645 168.477 181.645Z" fill="white"/>
<path d="M186.449 133.815C181.816 132.954 182.803 130.374 182.803 130.374C182.803 130.374 183.017 128.911 183.103 127.062C183.146 126.588 183.146 126.115 183.146 125.599C183.146 124.825 183.103 124.051 183.017 123.319C182.631 120.222 191.381 122.072 191.381 122.072C191.381 122.072 190.867 128.352 192.067 130.244C193.311 132.137 191.081 134.675 186.449 133.815Z" fill="#FFE3CA"/>
<path d="M177.656 130.33C177.656 130.33 186.963 141.127 190.395 143.622C190.395 143.622 194.341 140.052 191.896 130.589C191.939 130.589 187.435 128.309 177.656 130.33ZM177.913 104.393C177.913 104.393 173.066 113.727 177.87 122.588C182.674 131.449 192.11 118.717 192.711 117.254C193.311 115.749 196.571 107.318 190.137 104.781C183.703 102.2 179.286 101.856 177.913 104.393Z" fill="#FFE3CA"/>
<path d="M179.5 107.705C179.5 107.705 176.154 112.093 175.768 115.319C175.768 115.319 174.439 109.211 178.17 103.318C181.902 97.4253 191.467 103.017 192.711 105.383C193.997 107.748 197.729 109.813 191.424 119.921C191.51 119.921 180.186 112.05 179.5 107.705Z" fill="#0E538C"/>
<path d="M187.264 123.534C187.264 123.534 186.406 125.384 183.146 127.104C183.189 126.631 183.189 126.158 183.189 125.642C183.146 125.599 185.376 125.341 187.264 123.534Z" fill="#FCD2B1"/>
<path d="M138.367 173.215C138.367 173.215 136.05 174.247 134.978 173.774C133.906 173.301 132.19 173.215 131.675 173.215C130.946 173.215 128.759 172.398 128.759 173.301C128.802 174.161 132.362 174.763 133.091 175.064C133.82 175.322 130.903 176.957 130.646 177.645C130.389 178.376 133.691 183.065 135.536 181.731C137.38 180.398 138.409 177.731 138.795 177.559C139.182 177.387 140.211 176.656 140.211 176.656L138.367 173.215Z" fill="#FFE3CA"/>
<path d="M130.989 177.215C130.989 177.215 125.585 181.688 125.499 182.291C125.413 182.893 125.713 183.194 126.228 182.764C126.743 182.377 131.59 178.592 131.59 178.592C131.59 178.592 126.185 185.001 126.014 185.474C125.928 185.732 126.443 186.334 126.743 186.162C127.043 185.99 132.791 179.968 132.791 179.968C132.791 179.968 127.772 185.947 127.729 186.42C127.686 186.807 128.33 187.237 128.716 186.807C129.102 186.377 134.12 181.129 134.12 181.129C134.12 181.129 130.732 185.732 130.946 186.119C131.075 186.377 131.504 186.893 132.319 185.689C133.134 184.484 135.407 181.818 135.407 181.818L130.989 177.215Z" fill="#FFE3CA"/>
<path d="M195.585 205.217H179.715C179.715 205.217 165.089 206.378 163.93 196.098C162.772 185.818 168.734 180.097 168.734 180.097C168.734 180.097 176.455 182.162 183.189 183.796C186.577 183.065 190.652 182.592 195.37 182.721C195.37 182.721 223.979 192.184 223.121 197.173C223.121 197.216 211.154 190.807 195.585 205.217Z" fill="#254368"/>
<path d="M185.248 187.409L215.529 186.979L200.26 194.765L185.248 187.409Z" fill="#E6E6E6"/>
<path d="M194.684 183.538C194.684 183.538 187.864 186.162 179.543 183.796L179.157 180.656L196.356 181.602L194.684 183.538Z" fill="#2A94F4"/>
<path d="M200.26 194.765L185.248 188.915V187.409L201.418 193.259L200.26 194.765Z" fill="#F2F2F2"/>
<path d="M194.555 185C194.47 186.119 195.585 186.936 196.657 186.506L198.416 185.732C198.93 185.517 199.23 184.957 199.145 184.398C198.416 179.796 196.829 161.945 199.145 158.848C200.003 157.73 200.517 156.741 200.818 155.837C202.319 159.752 204.206 164.784 204.978 167.494L219.261 186.592L224.065 187.796C218.103 173.344 213.256 165.687 213.256 165.687C212.313 163.15 209.653 155.536 207.251 148.74C205.75 144.439 204.378 140.482 203.648 138.374C203.262 137.299 202.533 136.395 201.547 135.793C199.316 134.46 195.628 132.352 192.282 130.761H192.239C192.153 130.718 192.025 130.675 191.939 130.589C198.287 140.224 195.799 167.494 194.555 185C194.555 184.957 194.555 184.957 194.555 185ZM170.922 131.406C168.863 131.707 163.845 136.653 161.143 141.6C158.097 147.278 154.966 153.73 152.607 155.837C148.318 159.752 136.265 173.559 135.708 173.215C135.493 173.086 139.01 177.344 139.439 177.516C139.654 177.602 159.212 160.612 161.1 158.031C162.901 155.579 167.662 145.299 169.078 145.514C169.206 145.729 170.922 149.514 172.552 155.02C172.595 155.106 172.595 155.192 172.638 155.278C173.753 159.106 173.667 163.279 173.066 167.967C172.595 171.494 169.978 177.301 168.391 180.097C168.22 180.441 168.263 181.086 168.434 181.559C168.563 181.861 168.734 182.076 168.949 182.162L174.696 184.312L176.026 184.828C177.013 185.173 177.999 185 178.771 184.441C179.414 183.968 179.843 183.28 179.972 182.463C181.259 172.613 182.846 162.548 184.133 158.762C189.794 142.116 181.945 129.642 181.945 129.642C181.945 129.642 172.723 130.718 170.922 131.406Z" fill="#FFBE55"/>
<path d="M200.26 194.765L209.267 170.118L238.262 170.591L229.684 193.302L200.26 194.765Z" fill="#F2F2F2"/>
<path d="M218.532 181C217.631 182.764 217.931 184.699 219.132 185.302C220.333 185.904 222.049 184.957 222.949 183.194C223.85 181.43 223.55 179.495 222.349 178.893C221.105 178.29 219.432 179.237 218.532 181Z" fill="#D3D3D3"/>
<path d="M187.95 113.684C187.95 113.684 189.794 116.566 188.079 119.104C186.363 121.599 188.507 124.051 188.894 126.717C189.28 129.384 181.731 136.395 190.094 139.965C198.501 143.493 201.161 137.643 199.016 134.417C196.871 131.191 195.37 128.567 195.156 123.965C194.984 119.362 193.483 112.222 187.95 113.684Z" fill="#0E538C"/>
<path d="M283.47 193.259V198.722L289.346 193.259H312.207C313.665 193.259 314.823 192.012 314.823 190.506V156.225C314.823 154.719 313.665 153.472 312.207 153.472H275.62C274.162 153.472 273.004 154.719 273.004 156.225V190.506C273.004 192.012 274.162 193.259 275.62 193.259H283.47Z" fill="#FFBE55"/>
<path d="M305.645 185.001V183.624C305.645 179.065 302.128 175.409 297.796 175.409H289.946C285.614 175.409 282.097 179.108 282.097 183.624V185.001H305.645ZM299.125 165.817C299.125 168.827 296.766 171.279 293.892 171.279C291.019 171.279 288.66 168.827 288.66 165.817C288.66 162.806 291.019 160.311 293.892 160.311C296.766 160.354 299.125 162.806 299.125 165.817Z" fill="white"/>
<path d="M117.993 151.192C117.993 153.343 116.32 155.063 114.305 155.063H111.86V164.139L103.238 155.063H74.8869C72.8281 155.063 71.1982 153.343 71.1982 151.192V118.846C71.1982 116.695 72.871 114.975 74.8869 114.975H114.347C116.406 114.975 118.036 116.695 118.036 118.846V151.192H117.993Z" fill="#FFBE55"/>
<path d="M78.5752 126.631H110.615V129.212H78.5752V126.631ZM78.5752 133.083H110.615V135.664H78.5752V133.083ZM78.5752 139.578H110.615V142.159H78.5752V139.578Z" fill="#CCE9FF"/>
<path d="M109.543 90.8442C115.033 86.2848 118.207 79.9619 118.636 72.6066C118.679 72.1334 118.679 71.7033 118.679 71.2301C118.722 68.3913 118.379 65.9825 117.607 63.3157C117.564 63.2297 117.564 63.1866 117.521 63.1006C117.521 63.1866 117.564 63.2297 117.607 63.3157L110.401 65.6384C110.916 67.3589 111.173 69.2085 111.173 71.1441C111.087 77.0369 108.299 82.1986 104.01 85.3815L108.342 91.8335C108.728 91.4894 109.157 91.1883 109.543 90.8442Z" fill="#0E538C"/>
<path d="M80.4627 81.0802C78.4897 78.1123 77.3316 74.4992 77.3745 70.6279C77.5032 60.8209 85.1809 53.0355 94.4884 53.1645C101.994 53.2936 108.257 58.4982 110.358 65.6384L117.564 63.3157C117.564 63.2296 117.521 63.1866 117.478 63.1006C117.393 62.7995 117.264 62.4554 117.178 62.1543C117.135 62.0683 117.135 61.9823 117.092 61.8962C113.661 52.2182 105.426 45.8523 95.6036 45.2931C95.3891 45.2931 95.1318 45.2931 94.9173 45.2501H93.2874C93.0301 45.2501 92.7727 45.2931 92.5154 45.2931C92.3438 45.2931 92.1722 45.3361 92.0007 45.3361C91.872 45.3361 91.7004 45.3791 91.5717 45.3791C91.2715 45.4221 90.9713 45.4651 90.7139 45.5081H90.671C88.5693 45.8523 86.5963 46.4544 84.709 47.2717C84.4946 47.3577 84.2372 47.4868 84.0228 47.5728C76.5167 51.2289 71.0694 58.7563 70.0829 67.7891V67.9611C70.04 68.2622 70.04 68.5633 69.9971 68.8644C69.9971 69.0365 69.9542 69.1655 69.9542 69.3375C69.9542 69.5526 69.9542 69.7677 69.9113 69.9397V70.4559C69.8256 76.0906 71.4983 81.2953 74.3721 85.5966L80.4627 81.0802Z" fill="#CCE9FF"/>
<path d="M108.342 91.7905L104.01 85.3385C101.179 87.4462 97.7481 88.6505 94.0594 88.5645C88.4406 88.4785 83.508 85.5106 80.5056 81.0372L74.3721 85.5966C74.6294 86.0267 74.9297 86.4138 75.2299 86.801C79.3475 92.2637 84.9235 95.5327 91.4859 96.3069H91.6146C91.9577 96.3499 92.3009 96.3929 92.6011 96.3929H92.9442C93.2874 96.3929 93.6305 96.436 93.9737 96.436C99.2065 96.522 104.096 94.8445 108.128 91.9196C108.6 91.6185 108.728 91.4894 108.342 91.7905Z" fill="#FFBE55"/>
<path d="M94.7456 70.4989L121.296 79.5317C126.057 64.1329 118.036 47.6158 103.367 42.6262C100.45 41.6369 97.8338 41.2068 94.7456 41.2068V70.4989Z" fill="#2A94F4"/>
<path d="M310.878 93.339L310.749 86.973L305.345 86.6289C304.916 84.5643 304.144 82.6287 303.115 80.9081L306.632 76.3917L302.257 72.0044L298.225 75.7465C296.595 74.6282 294.751 73.8109 292.778 73.3808L292.22 67.574L286.172 67.703L285.829 73.3378C283.856 73.7679 282.012 74.5852 280.382 75.7035L276.05 72.0474L271.846 76.6498L275.406 80.9081C274.334 82.6287 273.562 84.5643 273.133 86.6289L267.6 87.2311L267.729 93.5971L273.133 93.9412C273.562 96.0058 274.334 97.9414 275.364 99.662L271.846 104.178L276.221 108.566L280.253 104.824C281.883 105.942 283.727 106.759 285.7 107.189L286.258 112.996L292.306 112.867L292.649 107.232C294.622 106.802 296.466 105.985 298.096 104.867L302.428 108.523L306.632 103.92L303.072 99.662C304.144 97.9414 304.916 96.0058 305.345 93.9412L310.878 93.339ZM289.432 98.6297C285.014 98.7157 281.368 95.0595 281.283 90.4141C281.197 85.7687 284.671 81.9405 289.089 81.8544C293.507 81.7684 297.153 85.4245 297.238 90.07C297.367 94.6724 293.85 98.5006 289.432 98.6297Z" fill="#FFBE55"/>
<path d="M288.531 94.3713L285.958 91.6615L287.33 90.242L288.531 91.5324L292.649 87.2311L293.978 88.6506L288.531 94.3713Z" fill="#FFBE55"/>
<path opacity="0.62" d="M139.157 258.778C146.894 258.778 153.165 252.258 153.165 244.215C153.165 236.172 146.894 229.652 139.157 229.652C131.421 229.652 125.149 236.172 125.149 244.215C125.149 252.258 131.421 258.778 139.157 258.778Z" fill="#2A94F4"/>
<path d="M142.648 242.603L141.035 239.655L138.299 241.561L137.041 239.836C136.471 239.055 136.306 238.366 137.453 237.567L138.914 236.548L137.153 234.133C136.877 234.276 135.956 234.807 134.945 235.511C132.835 236.981 132.31 239.245 133.995 241.556L135.447 243.548L133.062 245.21L135.031 247.911L137.417 246.249L142.469 253.177L145.321 251.19L140.269 244.261L142.648 242.603Z" fill="white"/>
<path opacity="0.4" d="M175.564 61.8206C178.545 68.6191 175.448 76.5453 168.648 79.5246C161.847 82.5039 153.918 79.4082 150.937 72.6102C147.957 65.8116 151.054 57.8854 157.855 54.9061C164.655 51.9262 172.584 55.022 175.564 61.8206Z" fill="#2A94F4"/>
<path d="M154.417 61.8961L165.531 57.2974C166.04 57.0884 166.616 57.0782 167.134 57.2689C167.651 57.4596 168.067 57.8358 168.291 58.3153L173.162 68.8082C173.384 69.2889 173.394 69.8328 173.192 70.321C172.99 70.8092 172.592 71.202 172.084 71.4138L160.97 76.0124C160.461 76.2216 159.885 76.232 159.368 76.0414C158.851 75.8508 158.434 75.4746 158.21 74.9951L153.339 64.5022C153.118 64.0214 153.107 63.4775 153.309 62.9892C153.511 62.5009 153.909 62.1079 154.417 61.8961ZM164.118 59.751C163.748 59.9047 163.578 60.3161 163.74 60.666L164.446 62.1869C164.608 62.5368 165.043 62.6976 165.414 62.5445L167.104 61.8452C167.474 61.6921 167.644 61.2808 167.482 60.9308L166.776 59.41C166.698 59.2416 166.552 59.1096 166.37 59.0426C166.189 58.9755 165.987 58.9791 165.808 59.0523L164.118 59.751ZM168.531 63.1722L167.215 63.7166C167.525 64.0565 167.78 64.4382 167.97 64.8491C169.06 67.1964 167.862 69.9615 165.295 71.0237C162.729 72.0852 159.763 71.0431 158.673 68.6959C158.483 68.2849 158.358 67.8495 158.303 67.4038L156.93 67.9719L159.699 73.9353C159.842 74.2445 160.226 74.3846 160.553 74.2492L170.965 69.9408C171.293 69.8054 171.442 69.4443 171.299 69.1351L168.531 63.1722ZM161.976 63.8715C160.317 64.5577 159.544 66.3434 160.248 67.8613C160.952 69.3775 162.868 70.0519 164.526 69.3656C166.185 68.6794 166.958 66.8925 166.254 65.3764C165.549 63.8585 163.634 63.1852 161.976 63.8715Z" fill="white"/>
<path d="M71.359 227.411C83.1183 227.411 92.651 217.882 92.651 206.127C92.651 194.371 83.1183 184.842 71.359 184.842C59.5997 184.842 50.0669 194.371 50.0669 206.127C50.0669 217.882 59.5997 227.411 71.359 227.411Z" fill="#0E538C"/>
<path d="M65.7554 194.924L80.3236 205.566L65.7554 216.209V194.924Z" fill="white"/>
<path d="M226.134 88.3171C236.085 87.6745 243.64 78.9286 243.01 68.7825C242.38 58.6364 233.803 50.9323 223.852 51.5749C213.901 52.2175 206.346 60.9635 206.976 71.1096C207.606 81.2557 216.184 88.9598 226.134 88.3171Z" fill="#FFBE55"/>
<path d="M233.193 61.6978L230.058 60.5558C229.806 60.4644 229.528 60.4742 229.284 60.5831C229.04 60.692 228.85 60.8911 228.756 61.1366L224.496 72.2935C224.404 72.5342 224.22 72.7306 223.982 72.8409C223.745 72.9511 223.472 72.9668 223.223 72.8844L218.331 71.2655C218.077 71.1814 217.799 71.1994 217.558 71.3155C217.317 71.4315 217.134 71.6362 217.048 71.8845L215.974 74.9803C215.888 75.2286 215.906 75.5001 216.025 75.7351C216.144 75.9701 216.353 76.1495 216.607 76.2339L226.433 79.4858C226.682 79.5682 226.955 79.5525 227.192 79.4422C227.43 79.3319 227.614 79.1357 227.706 78.8949L233.787 62.9702C233.881 62.7246 233.871 62.4526 233.759 62.214C233.648 61.9754 233.444 61.7897 233.193 61.6978Z" fill="white"/>
<path d="M199.111 27.9171C199.111 22.4001 193.091 17.924 185.663 17.924C178.236 17.924 172.216 22.4001 172.216 27.9171C172.216 33.4341 178.236 37.9102 185.663 37.9102C187.07 37.9102 188.436 37.7436 189.698 37.4521L194.56 41.4494V35.4119C197.353 33.5798 199.111 30.8942 199.111 27.9171Z" fill="#FFBE55"/>
<path d="M191.267 18.173C191.267 13.7127 186.508 10.0823 180.621 10.0823C174.733 10.0823 169.975 13.692 169.975 18.173C169.975 22.6333 174.733 26.2637 180.621 26.2637C181.73 26.2637 182.818 26.1392 183.827 25.8903L187.658 29.1266V24.2514C189.875 22.737 191.267 20.5795 191.267 18.173Z" fill="#0E538C"/>
<path d="M186.476 15.226H174.765C174.601 15.226 174.457 15.0714 174.457 14.8946C174.457 14.7179 174.601 14.5633 174.765 14.5633H186.476C186.64 14.5633 186.784 14.7179 186.784 14.8946C186.784 15.0714 186.64 15.226 186.476 15.226ZM186.476 17.6116H174.765C174.601 17.6116 174.457 17.457 174.457 17.2803C174.457 17.1036 174.601 16.949 174.765 16.949H186.476C186.64 16.949 186.784 17.1036 186.784 17.2803C186.784 17.457 186.64 17.6116 186.476 17.6116ZM186.476 20.0194H174.765C174.601 20.0194 174.457 19.8648 174.457 19.6881C174.457 19.5113 174.601 19.3567 174.765 19.3567H186.476C186.64 19.3567 186.784 19.5113 186.784 19.6881C186.784 19.8648 186.64 20.0194 186.476 20.0194ZM186.476 22.4051H174.765C174.601 22.4051 174.457 22.2504 174.457 22.0737C174.457 21.897 174.601 21.7424 174.765 21.7424H186.476C186.64 21.7424 186.784 21.897 186.784 22.0737C186.784 22.2504 186.64 22.4051 186.476 22.4051Z" fill="#FFBE55"/>
</svg>
